<?xml version="1.0" encoding="utf-8"?>
<!-- Generator: Adobe Illustrator 24.2.1, SVG Export Plug-In . SVG Version: 6.00 Build 0)  -->
<svg version="1.1" id="Livello_1" xmlns="http://www.w3.org/2000/svg" xmlns:xlink="http://www.w3.org/1999/xlink" x="0px" y="0px"
	 viewBox="0 0 100 98.9" style="enable-background:new 0 0 100 98.9;" xml:space="preserve">
<g>
	<path d="M50,25.9c-1.1,0-2,0.9-2,2v31L35.5,46.4c-0.8-0.8-2-0.8-2.8,0c-0.8,0.8-0.8,2,0,2.8l0,0l15.9,15.9c0.1,0.1,0.2,0.2,0.3,0.2
		H49l0.3,0.1h0.1c0.1,0,0.2,0.1,0.3,0.1c0.1,0,0.3,0,0.4,0c0.1,0,0.3,0,0.4,0c0.1,0,0.2,0,0.2-0.1h0.1l0.3-0.1h0.1l0.3-0.2
		l15.9-15.9c0.8-0.8,0.8-2,0-2.8c-0.8-0.8-2-0.8-2.8,0L52,58.9v-31C52,26.8,51.1,25.9,50,25.9z"/>
	<path d="M34.1,74.1h31.8c1.1,0,2-0.9,2-2s-0.9-2-2-2H34.1c-1.1,0-2,0.9-2,2S33,74.1,34.1,74.1z"/>
</g>
</svg>
